<?xml version="1.0" encoding="iso-8859-1"?>
<!-- Generator: Adobe Illustrator 19.0.0, SVG Export Plug-In . SVG Version: 6.00 Build 0)  -->
<svg version="1.1" id="Capa_1" xmlns="http://www.w3.org/2000/svg" xmlns:xlink="http://www.w3.org/1999/xlink" x="0px" y="0px"
	 viewBox="0 0 469.333 469.333" style="enable-background:new 0 0 469.333 469.333;" xml:space="preserve">
<path style="fill:#303C42;" d="M469.333,181.26c-0.021-3.333-1.604-6.458-4.271-8.458l-38.396-28.797V42.667
	C426.667,19.135,407.531,0,384,0H85.333C61.802,0,42.667,19.135,42.667,42.667v101.339L4.271,172.802
	c-2.667,2-4.25,5.125-4.271,8.458c0,0.026,0.017,0.047,0.017,0.073H0v245.333c0,23.531,19.135,42.667,42.667,42.667h384
	c23.531,0,42.667-19.135,42.667-42.667V181.333h-0.017C469.316,181.307,469.333,181.286,469.333,181.26z"/>
<path style="fill:#CCCCCC;" d="M441.088,181.469c-3.904,3.03-8.868,6.891-14.406,11.203v-22.009L441.088,181.469z"/>
<path style="fill:#FAFAFA;" d="M85.348,21.333h298.667c11.76,0,21.333,9.573,21.333,21.333v166.651
	c-49.523,38.724-124.72,98.095-156.135,125.901c-2.573,2.281-7.938,6.115-14.865,6.115c-5.063,0-9.948-2.052-14.531-6.115
	c-31.626-28.004-106.458-87.186-155.802-125.835V42.667C64.015,30.906,73.588,21.333,85.348,21.333z"/>
<path style="fill:#CCCCCC;" d="M42.682,170.664v22.044c-5.544-4.324-10.51-8.191-14.417-11.229L42.682,170.664z"/>
<path style="fill:#FAFAFA;" d="M426.682,448h-384c-11.76,0-21.333-9.573-21.333-21.333V203.112
	c44.49,34.63,147.421,115.396,184.323,148.086c8.479,7.5,18.396,11.469,28.677,11.469c10.354,0,20.656-4.073,29.01-11.469
	c38.35-33.96,143.323-115.967,184.656-148.092v223.561C448.015,438.427,438.442,448,426.682,448z"/>
<linearGradient id="SVGID_1_" gradientUnits="userSpaceOnUse" x1="-61.0362" y1="619.6301" x2="-45.5893" y2="604.1841" gradientTransform="matrix(21.3333 0 0 -21.3333 1430.1112 13315.2227)">
	<stop  offset="0" style="stop-color:#000000;stop-opacity:0.1"/>
	<stop  offset="1" style="stop-color:#000000;stop-opacity:0"/>
</linearGradient>
<path style="fill:url(#SVGID_1_);" d="M426.682,448c11.76,0,21.333-9.573,21.333-21.333V203.105
	c-41.333,32.125-146.306,114.133-184.656,148.092c-8.354,7.396-18.656,11.469-29.01,11.469c-10.281,0-20.198-3.969-28.677-11.469
	c-36.902-32.69-139.833-113.456-184.323-148.086L266.237,448H426.682z"/>
<path style="fill:#303C42;" d="M341.348,149.333c0-35.292-28.708-64-64-64c-16.01,0-31.021,5.885-42.667,16.469
	c-11.646-10.583-26.656-16.469-42.667-16.469c-35.292,0-64,28.708-64,64c0,17.104,6.656,33.177,18.781,45.281l80.375,79.625
	c2.083,2.063,4.792,3.094,7.51,3.094s5.427-1.031,7.51-3.094l80.406-79.656C334.692,182.51,341.348,166.438,341.348,149.333z"/>
<path style="fill:#D32F2F;" d="M307.546,179.469l-72.865,72.188L161.848,179.5c-8.063-8.052-12.5-18.771-12.5-30.167
	c0-23.531,19.135-42.667,42.667-42.667c13.479,0,25.906,6.313,34.115,17.333c4.021,5.396,13.083,5.396,17.104,0
	c8.208-11.021,20.635-17.333,34.115-17.333c23.531,0,42.667,19.135,42.667,42.667C320.015,160.729,315.578,171.448,307.546,179.469z
	"/>
<path style="opacity:0.2;fill:#FFFFFF;enable-background:new    ;" d="M192.015,121.677c13.479,0,25.906,6.313,34.115,17.333
	c4.021,5.396,13.083,5.396,17.104,0c8.208-11.021,20.635-17.333,34.115-17.333c21.007,0,38.406,15.28,41.921,35.293
	c0.449-2.5,0.746-5.043,0.746-7.637c0-23.531-19.135-42.667-42.667-42.667c-13.479,0-25.906,6.313-34.115,17.333
	c-4.021,5.396-13.083,5.396-17.104,0c-8.208-11.021-20.635-17.333-34.115-17.333c-23.531,0-42.667,19.135-42.667,42.667
	c0,2.594,0.296,5.137,0.746,7.637C153.61,136.957,171.009,121.677,192.015,121.677z"/>
<linearGradient id="SVGID_2_" gradientUnits="userSpaceOnUse" x1="-67.2246" y1="617.902" x2="-43.5628" y2="606.868" gradientTransform="matrix(21.3333 0 0 -21.3333 1430.1112 13315.2227)">
	<stop  offset="0" style="stop-color:#FFFFFF;stop-opacity:0.2"/>
	<stop  offset="1" style="stop-color:#FFFFFF;stop-opacity:0"/>
</linearGradient>
<path style="fill:url(#SVGID_2_);" d="M469.333,181.26c-0.021-3.333-1.604-6.458-4.271-8.458l-38.396-28.797V42.667
	C426.667,19.135,407.531,0,384,0H85.333C61.802,0,42.667,19.135,42.667,42.667v101.339L4.271,172.802
	c-2.667,2-4.25,5.125-4.271,8.458c0,0.026,0.017,0.047,0.017,0.073H0v245.333c0,23.531,19.135,42.667,42.667,42.667h384
	c23.531,0,42.667-19.135,42.667-42.667V181.333h-0.017C469.316,181.307,469.333,181.286,469.333,181.26z"/>
<g>
</g>
<g>
</g>
<g>
</g>
<g>
</g>
<g>
</g>
<g>
</g>
<g>
</g>
<g>
</g>
<g>
</g>
<g>
</g>
<g>
</g>
<g>
</g>
<g>
</g>
<g>
</g>
<g>
</g>
</svg>
